<svg id="Ebene_1" data-name="Ebene 1" xmlns="http://www.w3.org/2000/svg" viewBox="0 0 325 426"><title>silhouette</title><path d="M195,8h16a27.3,27.3,0,0,0,20.16,7.06c5.88-.29,11.94-1.08,16.41,4.61,1.11,1.42,3.76,2,5.79,2.26,5.22.58,10.49.85,15.75,1s9.66,1.87,12.12,6.82c4.61,9.28,9.11,18.61,13.61,27.94A23.65,23.65,0,0,1,296,61.46c1,3.58,2.47,7.1,3,10.74.55,3.93,1.68,8.83,0,11.8a30.59,30.59,0,0,0-4,14.36c-.41,7-1.07,14.07-2,21-.48,3.48-3.44,7.31-2.57,10.15,2.75,9,.57,17.5-.26,26.23-.46,4.91-3.08,8.37-6.15,11.9a138.32,138.32,0,0,0-11.76,15.1c-2.94,4.52-5.91,8.34-11.21,10.42-4,1.55-7.46,4.25-7,9.6.39,4.44,2.36,7.18,6.7,8.62a10.07,10.07,0,0,1,4.93,3.91c3.88,6.14,6.92,12.86,11.2,18.68,4.08,5.55,6.77,12.08,12.82,16.38,5,3.56,8.32,9.71,13.52,12.77C309.71,267,314.24,271.65,316,279v38l-2.68,10.27c-2.81-1.73-4.94-4.17-6.89-4-5.19.38-9.1-2-13.32-4.18q-6.66-3.37-10.18,3.4c-2.32,4.49-4.9,9-6.34,13.74-.79,2.61-.4,6.68,1.22,8.59s5.51,2.42,8.14,2c7.88-1.32,12.47,2,13.12,9.9.39,4.69.43,9.82,2.44,13.85,3.06,6.15-1.34,9.65-3.54,13.69-1.76,3.24-5.55,3.29-9.28,2.19-6-1.77-10.75-.31-13.51,4.16-5,8-11.4,13.45-21.13,15-6.95,1.13-13.63,3.83-20.54,5.31-5.38,1.15-9-1.83-11.7-6.34a55.87,55.87,0,0,0-6.47-8.64c-4.52-5-10.09-3.54-11.68,3-.46,1.89,0,4.12.45,6.1,1.33,5.89-1.7,10.34-7.6,11a22.32,22.32,0,0,0-3.51,1H182c-1.65-1.92-3.62-3.66-4.89-5.82-2.22-3.76-4-7.81-6-11.69-8.59-16.28-17.32-32.49-25.77-48.85-3.06-5.92-5.58-12.13-8.15-18.29-2.44-5.83-4.2-12-7-17.63-8.83-17.94-29.62-18.37-42.09-8.43a64.74,64.74,0,0,1-11.77,7.81c-5.2,2.53-8.58,6.45-11.13,11.34C59,337.4,50,346.08,36.81,350.06c-3.17,1-6,3-9,4.56-1.56.8-4.26,2.51-4.56,2.18-3.07-3.56-6.89-1.48-10.35-1.92-1.05-.13-2.33-1.52-2.79-2.63A62.32,62.32,0,0,1,8,345q0-1.5,0-3c1.41-1.91,2.78-3.86,4.23-5.73,2.33-3,5.26-5.7,6.9-9a9.42,9.42,0,0,1,6.11-5.47c6.49-2.23,11.39-6.28,14.11-13.22,3.29-8.4,5.45-17.31,11.52-24.63,5.63-6.8,11.42-11.74,21-11a211.05,211.05,0,0,0,23.55.05c8-.3,20.35-9.63,21.82-19.06.51-3.26,3.23-6.4,5.53-9.1,3.46-4.05,9.6-7.14,8-13.26-2.39-9.34-4-19.19-10.61-27a8,8,0,0,1-2-5.28c.73-6.74-3.19-10-8.5-12.29a11.94,11.94,0,0,1-7.48-10.73c-.39-8.09-3.21-15.22-6.67-22.33-3.6-7.41-6.34-15.1-5.5-23.6.4-4.09.9-8.19,1-12.29s1.54-6.19,5.76-7.15c7.44-1.69,10.26-8.21,5.91-14.44-5.62-8.06-4.67-15.66.4-23.21,3.61-5.38,4.86-11.14,5.19-17.55A33,33,0,0,1,112,42.78c2.81-5.48,7.73-10.05,9.73-15.72,2.58-7.27,7.95-9.84,14.14-12.05,2.13-.76,4.38-1.14,6.57-1.75,11-3,21.76-4.23,32,2.72,1.36.92,3.77.8,5.56.47,2.37-.43,4.64-2.29,6.91-2.22C191.58,14.38,193.6,11.79,195,8Z"/></svg>