<svg id="UNITE" xmlns="http://www.w3.org/2000/svg" viewBox="0 0 637.8 637.8"><defs><style>.cls-1{fill:#010101;}</style></defs><title>silhouette2-03</title><path class="cls-1" d="M554.31,170.53c-2.81-1-3.76-4.28-2.52-5.56,2.27-2.35.14-3.16-.58-4.4-1.06-1.81-2.5-4.9-3.66-4.85-2.6.12-1.78,3.38-2.52,5.27-.5,1.27-.57,2.71-2.59,1.88-1.64-.67-2.94-1.42-3-3.46-.12-2.38,1.15-1.05,2.27-1.34,3.09-.8.79-2.82.15-4.25-1.2-2.7-6.33-4.24-2.21-8.53.61-.63-.91-2.39-2.42-2.55-8.81-.93-15.25-9.54-14.33-19.19.09-1,.37-2.34-.13-2.87-1-1-1.55.47-2.32.92-3.1,1.83-1.81-1-1.63-1.78,1.32-5.59.27-11.21.43-16.8.06-2.24-.86-3.76-3-3.81-2.64-.07-1.34,2.07-1.27,3.29.12,2-.51,3.55-2.57,3.41s-1.46-1.72-1.32-3.35c.72-8.41-.52-17.08-5.08-23.75-2.59-3.78-5.25-8.06-8.56-11.34-2-1.94-6-2.46-9.05-2.42-3.54,0-4.4-1.46-4.49-4.37L471,59.24c0,3.65-4.73,6.24-2.34,10.48.13.22-.83,1.48-1.42,1.6-1.32.27-2.06-.84-2.65-1.86C460,61.63,453.71,55.17,445,53.09c-7.62-1.82-14.07-6.82-22-7.18a1.94,1.94,0,0,0-.48.1c.92-6-4-.81-5.18-2.73a5.51,5.51,0,0,1-.33-1.93c-5.94,1.07-11.39,6.79-18,1.91-.21,1.83-1.56,3.12-3,2.27-7.35-4.36-17.51-2.77-23-11-.83-1.24-1.32-2.19-.67-3.54-5.21-2.68-10.34-5.57-16.3-6.36-.24,2.61,3,2.78,3.43,4.94-2.55-.24-5.11-.68-7.66-.68-5.89,0-11.87-.55-17.51,1.79-1.23.51-3.51,1-.9,2.87.83.58,1.26,1.72.32,1.86-6.42.93-1.71,3-.89,5.16.44,1.15,2.64,3,.94,3.81-2.69,1.33-4.16,4.55-8,4.25-6-.46-8.4-4.89-11.51-8.74-.71-.87-1.5-1.68-2.25-2.52-1.81.07-3.68.47-5.42.14-7.69-1.43-18.28,3-21.3,10.11-1.37,3.21-3.89,1.35-5.61,2.68-1.3,1-2.42-1.26-3.17-2.43-1.33-2.06-2.42-4.27-3.61-6.42l-5.84-.1-.16.2c-3.28,3.45-6.1.91-9.73.44-8.57-1.11-13.14-9.32-21.4-9.78a14.64,14.64,0,0,0-11.85,3c-2.7,4.53-7.22,5-11.82,5.35-1.11.08-2.76-.35-2.82,1.16s1.53.57,2.36.81,1.81.46,1.95.93c.71,2.39-8.39,11.13-10.6,10.1-1.62-.76-2.5,0-3.57.76-2.21,1.47-4.94,1.11-5.59-1-1.47-4.75-5.84-5.07-9.07-7.16-4.86,2.18-11.07,1.63-14.52,6.68-11.85,17.34-23.8,34.63-33.29,53.44,2.18,1.28,2.94,2.83,1.49,5.27-1.94,3.25-3.64,6.63-5.43,10-1.19,2.21-2.56,4.72-1.2,7,4.12,6.92,1.71,13.35-.86,19.86-.53,7.22-2.89,13.67-7.93,19-.65,14.14-6.7,27-9.55,40.63-.11.53-.9.92-1.37,1.37l.06,1.93a16.77,16.77,0,0,1,3.73,11.19l6.07,6.87c.22,7.68,0,15.38,1.75,22.95.37,1.61-.54,3.46-2.1,3.41-6.44-.22-11.14,5.85-17.82,4.65-2-.35-6.79,9.72-7.44,18.25-4.25,5.45-3.58,27.56-8.11,33.21-1.8,2.25,1.36,8.37,2.11,12.75,3,17.24,14.14,31.68,16.64,49.06a4.88,4.88,0,0,0,.26,1c3.61,9.93,7.44,19.67,8,30.54.62,12.31,7.44,21.16,19.12,25,7.22,2.39,11.38,6.53,13,13.69.47,2.08,1,4.15,1.61,6.19,5.17,17.13,13.52,32.52,24,47,6.39,8.85,6.8,20.31,9.85,30.62,4,13.63,7.16,27.23,16.2,39.44,8.22,11.1,12.68,25.06,20,37.15,14.29,7.21,30.42,2.88,45.25,4.32,9.71.94,19.51,1.14,29.2,2.21,13,1.44,25.75-1,38.62-1.48,1.22-.33,2.32.55,3.76-.31,10.11-6,20.21-12.32,25.77-22.94a33,33,0,0,1,21.94-17.54c9.73-2.51,19.61-4.08,28.28-9.77,8.05-5.28,18.45-4.82,25.31-14.53a92.37,92.37,0,0,0,14.7-32.18c3.51-14.57,3-29.83,5.85-44.65a123.37,123.37,0,0,1,5.78-20.9c3.44-9-2.87-18.27,2.55-27,3.15-5.11-2-8.71-5.55-10.35-4.59-2.11-3.65,3.4-5.06,5.67a8.14,8.14,0,0,0-1.41,2.61c-.81,4.84-5.91,7.15-6.94,11.72-2,8.9-.26,18-1.8,27.11-3.27,19.33-3.93,39-3.44,58.64.31,12.51-10.45,24.12-22.92,25.31-5.23.5-10,2.23-14.7,4.19-2.13.88-4.12,2.19-6.31,2.76-1.42.37-3.51,1-4.55-.73-.93-1.51.65-2.73,1.27-4,2-4.19,6.29-5.84,9.6-8.53,10.64-8.65,19.05-18.93,24.53-31.53.71-1.63,4.45-2.4,1.66-5.12-2.63-2.57-4,.55-5.86,1.4-12,5.52-17.68,17.93-28.17,25.49-11.44,8.24-20.66,19.13-29.06,31.12-6.11,8.72-12.09,18-18.89,26.45-6.32,7.88-15.42,11.72-21.76,19.08-1.39,1.62-4,1.11-6.13.33-7.88-2.89-15.67-6.09-23.7-8.5-4.83-1.45-9.9-3.13-15.17-1.45-4.52,1.44-7.5-.8-10-4.26a62.6,62.6,0,0,0-5-6.17c-2.61-2.77-4.25.31-5.74,1.52-1.28,1-2.1,3.18.52,4.28,2.1.88,3.45,2.44,2.7,4.61-.69,2-2.71,2.82-4.82,3.05a96.93,96.93,0,0,1-41.08-3.82c-2.4-.77-4.72-2.89-4.31-4.9,1.24-6.1-2.79-9-5.2-13.51a73.18,73.18,0,0,1-7.5-21.62c-3.91-23.85-10.85-46.5-22.26-67.84-5.69-10.64-10.15-21.9-12.18-33.82s-2.34-23.87-2.56-35.92c-.2-11.13-2.07-22.22-2.81-33.35-.36-5.44.37-10.94.26-16.41,0-2.58-1.74-5.32-1.24-7.67a71,71,0,0,0,1.53-22.18c-.52-5.07-2.54-9.62.69-14.94,2.56-4.21,3-9.74,4.3-14.68.66-2.45-.44-4-2.4-5.45-2.28-1.64-4-.16-5.23,1.14-1,1-1.49,2-3.09,1.79-7.16-.92-7.66,3.57-6.77,8.74,2,11.42-.57,22.77-1.11,34.07-.34,7-2.19,14.29-2.53,21.59-.79,17-.17,34.08-5.21,50.6-.4,1.31-.61,3-2.52,3.25-4.53.59-10.09-4.82-11-9.37-2.37-12.15-1.95-25-9.12-36.05-2.4-3.72-5.55-8.49-5.5-12.28.11-8.75-2.35-16.64-5.07-24.5-6.92-20-5.32-39,4.42-57.66,3.21-6.14,9.61-9.34,15.16-7.18,3.07,5.63,8.85,8.57,13,13.15,11.67,1.22,14-1.8,10.08-13-.34-1-.8-2.17.27-2.7,5.81-2.85,3.28-6,.17-8.73-4.73-4.19-1.42-8.93,1.27-10.17,6.75-3.11,1.86-8.81,4.08-12.7,1.06-1.87-.53-5.24,3.27-5.57l.84-2.12c-1.42-2.33-.38-3.87,1.65-5.09l.27-1c1.18-2.72-1.26-7.29,4-7.91A95.82,95.82,0,0,1,183,187.51c0-7.57,6.87-10.77,11.39-12.91A19,19,0,0,0,204.51,164c3.78-9.78,12.89-13.87,19.49-20.59,2-2.09,4.62-3.51,6.27-6.18,1.9-3.07,4.06-4.2,8.46-2.28,4.6,2,10.3,1.84,15.67,1.13,4.33-.57,8.94-1.41,13.08-.51,6.7,1.45-1,5.07.52,7.59,8.93-.51,16.08,5.94,24.78,6.3,4.35-.6,7.27,2.09,10.71,4.1,2.5,1.46,7.88,7.05,7.83-2.35,0-1.14.24-1.15,4.23,0a16.58,16.58,0,0,0,1.66-1.86c7-10.65,19.07-14.14,29.69-15.86,9.57-1.55,20.7-1.9,30.36.27,6.32,1.42,12.3,4.15,19.15,3.82,3.45-.17,4.69,4,8,5.31a95.24,95.24,0,0,1,27.47,16.66c6.32,5.42,10.17,12.78,16.1,18.24,5.17,4.76,7.87,10.76,10.26,16.78,2.3,5.76,5.35,11.88,4.7,18.17-1.13,10.95,5,19.75,8,29.34,1.58,5.07,5.56,9.26,3.4,15.16,1.84,1.16,1.68,2.57.53,4.11l.21,1.94c2.39,2.67,5.13,5.12,7.1,8.07,3.55,5.3.16,11.35-6.36,11.87-.69,3.85-1.05,7.66,1.74,11,2,2.31,2,5,2.19,7.91.35,6.74-2.95,12.6-4.18,18.94-1.52,7.8,1.49,17-7,23.35a38.49,38.49,0,0,0-7.55,7.64c-6.14,8.33-11.92,16.86-19.61,24-4.06,3.79-11.16,7.41-6.67,15.38,7.44-5,10.58-13.59,16.5-19.88,1.43-1.53,2.16-3.71,4.48-4.32l5.32-6.79c3.73-6.56,9.17-11.53,15-16.15,3.14-9,6.1-18,16.75-21.07,2.26-.66,4.18-2.49,6.25-3.78,4-2.64,7.85-5.51,12-7.87,11.08-6.28,21.19.18,22.1,13,.66,9.27-2.62,18.13.28,28,2.49,8.42-3.19,17.18-8.77,24.69-5.13,6.91-12.78,11.21-17.15,19.08-8,14.34-12.42,31.5-29.32,39.41-2.41,1.12-1.72,4.76-2,7.35.91.08,2,.55,2.7.19,4.73-2.46,9.76-4.58,14-7.77,8.15-6.17,10.54-16.42,16.14-24.43,4.36-6.24,6.89-14,13.61-18.31a42.6,42.6,0,0,0,17.33-21.13c5.67-15.17,6.1-31.52,7.3-47.44A32.84,32.84,0,0,0,539.08,300c-1.53-1.71-4.68-3.61-4.42-4.89.44-2.19,3.68-.71,5.61-1.37.6-.21,1.41-.43,1.68-.9,2.56-4.46,5.76-8.75,7.19-13.57.61-2.06-2.48-5.23-3.89-7.9a116.63,116.63,0,0,1,6.63-13c6.17-10.1,6-20,4.11-30.65-.51-2.9-.36-5.92-1-8.79-1.68-7.88,2.41-14.94,2.9-22.48C558.5,187.59,554.09,179.38,554.31,170.53Z"/><path class="cls-1" d="M381.05,238.61c-6.06,9.12-15.1,15.06-23.23,22-.68.58-2.19.9-1.53,2.1.25.46,1.78.47,2.65.29a30.33,30.33,0,0,0,16.17-9.16c8.59-9.17,14.07-20.61,21.42-30.72,2.67-3.67,6.82-7.21,6.08-12.84-2.46-8.86-2.29-18.25-8.6-26.38a75.34,75.34,0,0,0-22.61-19.39c-1.19-.68-3.27-1.62-4.49.34-1.05,1.69-.06,2.93,1.08,4.37,6.2,7.78,13.81,14.38,18.5,23.46,4.58,8.87,9,17.86.47,26.67-1.78,1.84-7,5.55-.45,8.83.36.18.34,2-.1,2.75C384.76,233.55,382.79,236,381.05,238.61Z"/><path class="cls-1" d="M407.16,325.44c-4.89-4.5-7-10.77-10.28-16.27-2.65-1.65-5,3.26-7.19.75-4.49-5.19-10.24-6-16.55-6.82-5.11-.69-10.69.69-15.38-2.48-1.68-1.13-4.57-2.41-2.25-4.83,6-6.27,13.88-9,22.32-8.85,6.41.11,14,4.1,14.18-7.4,0-.89,1.84-1.68,2.68-2.64,1-1.17,2.86-2.83,2.57-3.67-.61-1.76-2.83-2-4.7-2-6.81.25-13.52,0-19.95-2.71-5.86-2.45-11.33-.76-16.63,2-7.18,10.37-17,17.39-28.57,22-3.72,1.47-4-1.49-4.51-4-3.8-.82-8-1.83-9.4-5.66-3.8-10.12-11.89-10.21-20.48-9.65a20.91,20.91,0,0,1,2.66-1.3c1.23-.41,3.07-.37,2.8-2.14-.32-2-2.3-1.39-3.7-1.45a29,29,0,0,0-3,.07,39.06,39.06,0,0,1-22.95-5.2c-9.53-5.61-18-13.37-27.74-17.86-16.78-7.71-23.89-31.38-6.69-44.68,2.52-1.95,1.66-4.75.69-6.74-.61-1.26-2.34-3.83-4.52-2.66-4.21,2.25-8.76,4.44-11.29,8.67-7.74,12.94-4.8,32.14,5.3,43.13,7.18,7.81,15.69,13.67,24.59,18.92,8,4.72,15.27,11.07,25.1,12.41,4.8.65,9.71-1.43,14.36.85-5.79,5.47-12.9,9.77-16.41,17.29-1.85,3.95-3.91,1.68-5,.16-7.2-10-17.2-17.22-25.44-26.19-3.65-4-9.07-10.71-16.36-7.09-6.31,3.13-12.82,4.79-19.43,6.71-1.72.5-5.21.8-5.74,3-1.19,4.91,1.3,10-.15,15.09-.07.25.92,1.2,1.29,1.13,7.34-1.36,15,1.51,22.09-1.08,6.12-2.22,12.05,0,14.3,6.25a21,21,0,0,1,.63,3.31,15.73,15.73,0,0,1-3.9.27c-4.92-.89-9.59-1.62-14.77-.15-4.15,1.18-8.09,2.63-12.1,4.16-5.94,2.26-12.33,1.58-18.55,1.14-3.54-.25-4.52,1.43-4.25,4.39.76,8.5-1.36,16.23-5,23.9-1.9,4-5.18,8-4.42,12.63a27.58,27.58,0,0,0,15.4,20.47c14.39,6.75,29.48,10.21,44.72,0,6.67-4.46,13.89-8.94,22.36-9.94-1.69,2.18-.33,4.18.37,6.22-2.86,6-20.56,48.55-19.63,55.75.52,4-1,8.51-1.2,12.36-.24,5.32-3.69,10.8.08,16.72,3,4.68,6.92,2.74,10.42,3.78l5.29,4.82c8.26,2.75,14-.65,18.55-7.38a18.31,18.31,0,0,1,2.73-2.67l1.36-1.36c.92-1.62,1.58-1,2.17.25,4.75.35,8.31,3.09,11.31,6.31,2.81,3,5.77,4.07,9.63,2.91,8.28,2.2,13.87-1.19,15-9.12a33.07,33.07,0,0,1,1.61-7.09c2.36-6.26,6.95-12.44,5.38-19.29-2.85-12.47-4.89-25.53-15.06-35a6.34,6.34,0,0,1-1.47-3.57c-.71-4.91-1.72-9.84-1.75-14.76,0-9.57-1.15-19.46,5.54-27.76,2.08-2.58,4.28-4.21,7.63-2.29.64,3,4.39,5,4.45,7.27.37,13,9,18.54,19.28,22.76,11.53,4.72,23.69,4.62,35.85,4.26l0,0c10.81,4.78,19.42-.89,28-6.17,1.37-.84,2.46-3.39,2.38-5.1C405.37,343.45,410.21,334.64,407.16,325.44ZM214.28,303.13c.47-3.74,6.12-4.74,10.39-4.67,2.37,0,6.28-.57,6.15,2.42-.23,5.47-5,4.69-9.69,4.39C219.2,304.67,213.77,307.19,214.28,303.13Zm37.49,40.17c-9.63,6-18.18,14.32-29.31,17.15-11.7,3-21.7-.58-30.91-9.56-6.35-6.19-8.71-11.71-6.44-19.72.79-2.79,1.32-6.12,5.68-4.66,3.19-1.62,5.24-4.41,7.55-7,5.48-6.22,15.21-5.38,18.23,1.45a4.86,4.86,0,0,1,.4,3.29c-.57,1.49-2,.53-3.06.37-3-.45-5.89-1.09-8.86-1.31a3.53,3.53,0,0,0-2.83,1.54c-.79,1.67,1.2,1.49,2,2.15s4.76-.19,1.18,2.66c-.63.51,1.27,1.12,2.06,1.35,6.06,1.76,12.15,3.41,18.22,5.1,4.67-.71,9.25.1,13.81.86,2.79.46,5.4,1,8.23-.19,2-.85,4.69-.69,5.87,1.35C254.63,339.94,253.26,342.37,251.76,343.3ZM252.5,421c2.11-7.72,1-16,2.4-23.5,2.07-10.77,4.72-22,11.13-31.57,3.79-5.64,4.07-13,9-18.11,1.72-1.79.13-2.92-2-2.84a8.57,8.57,0,0,1-6-1.62c-1.39-6.1,5.31-8.75,6-14a6.71,6.71,0,0,1,2-5l-.54-3c3.05-5.12,15.07-6.78,19-2.46,1.55,1.71,3.25,3.81-.07,5.89-3.77,2.36-1.21,6.76-3,10.09-4.84,9-5.3,19.23-6.58,29.12-2.81,21.57-4.59,43.37-17.58,62-2.36,3.38-5.09,7.26-9.52,6C251.35,430.52,251.16,425.95,252.5,421Zm53.73-18.33c1.3,6.72,3.07,13-.81,19.65-3.46,5.9-9.69,8.6-15.89,5.84a5.49,5.49,0,0,1-3.34-3.48c-4.09-14.87-3.16-29,5.65-42.23,1.88-2.83,4.24-3,6.8-2.27,2.35.63.57,3.11,1.05,4.66A62.21,62.21,0,0,1,306.23,402.71ZM280.91,302.52c-3.87-4.89-2.57-9,2.21-12.16,3.13-2.06,5.76-4.72,9.9-5.54,8.42-1.66,12.58.61,14.75,9.33C299.1,297.85,289.21,297.65,280.91,302.52ZM390.5,355.11a38,38,0,0,1-15.09,8.68c-2.59-3.05-6.24-2.76-9.77-3.47-12.16-2.45-25.59-1.78-34.55-12.88-4.16-5.7-8.42-11.39-8.35-18.91,0-1.27-.55-3.62,1.45-3.6,1.34,0,3.86,1.73,3.82,2.58-.32,6.22,4.74,5.81,7.84,5.57,8.22-.65,15.42,1.62,22.37,5.52,8-4,16.76-5.67,25.5-6.68,4.2-.49,9.74-5.25,13,2C398.59,338.16,394.49,351.43,390.5,355.11Z"/><path class="cls-1" d="M233.79,496.4c-3.2.61-8.27-2.41-8.86,4,.65.72,1.17,1.8,2,2.09,10.29,3.68,20.89,6,31.68,7.86,8.28,1.46,16.22,2.54,24.34,0,9.06-4.16,17.86-9.09,27.27-12.19,5.68-1.87,8.19-8.14,15-8.35,3.81-.12,7.55-1.82,11.38.08l8.34-.8,1-.71.08-2c-5.39-8.93-10.62-9.79-19.67-5.75-10.51,4.7-21.9,4.5-33.12,2.21-1.25-.26-2.23-1.86-3.33-2.83l-14-.44c-2.25,1-4.6,1.8-6.74,3-3.3,1.84-5.94,1.52-8-1.81-1.88-3.09-5.39-3.56-8.2-5.17l-2.94.39c-3.77,3.23-8.43,4.64-13.11,5.18-5.11.59-10.17,1.05-15.09,2.64-2.68.86-5.26.69-7-2l-1.81-.06c-.88,2.31-3.72,4.31-1.48,7.16,2.06,2.62,5,3,8.11,2.57a43.68,43.68,0,0,1,14.77.27c1.46.31,3.61,1.14,3.36,3C237.49,497,235.35,496.1,233.79,496.4Zm20.32-1.49c5-1,10.05-2.44,15.3-2.6,8.63,0,17.25,0,25.88,0a13.38,13.38,0,0,1,2.82.63c-.69.63-1.36,1.28-2.07,1.88-13.16,11-27.48,9.72-42.19,3.88-1.28-.51-3.3-.67-3.18-2.5C250.72,495.69,252.87,495.15,254.11,494.9Z"/></svg>